<?xml version="1.0" encoding="utf-8"?>
<!-- Generator: Adobe Illustrator 25.2.2, SVG Export Plug-In . SVG Version: 6.00 Build 0)  -->
<svg version="1.1" id="BrandSymbol" xmlns="http://www.w3.org/2000/svg" xmlns:xlink="http://www.w3.org/1999/xlink" x="0px"
	 y="0px" viewBox="0 0 137.1 137.1" style="enable-background:new 0 0 137.1 137.1;" xml:space="preserve">
<style type="text/css">
	.st0{fill:#FFE100;}
	.st1{fill:url(#SVGID_1_);}
	.st2{fill:url(#SVGID_2_);}
	.st3{fill:url(#SVGID_3_);}
	.st4{fill:url(#SVGID_4_);}
	.st5{fill:url(#SVGID_5_);}
	.st6{fill:url(#SVGID_6_);}
	.st7{fill:url(#SVGID_7_);}
	.st8{fill:url(#SVGID_8_);}
	.st9{fill:url(#SVGID_9_);}
	.st10{fill:url(#SVGID_10_);}
	.st11{fill:#FFFADA;}
</style>
<g>
	<g>
		<rect class="st0" width="137.1" height="137.1"/>
		<g>
			<g>
				
					<linearGradient id="SVGID_1_" gradientUnits="userSpaceOnUse" x1="542.9177" y1="39.5573" x2="545.3382" y2="38.8416" gradientTransform="matrix(77.3572 0 0 77.3572 -42078.168 -2908.7622)">
					<stop  offset="0" style="stop-color:#FFE400"/>
					<stop  offset="0.34" style="stop-color:#FFFFFF"/>
					<stop  offset="0.66" style="stop-color:#FFFFFF"/>
					<stop  offset="1" style="stop-color:#FFE400"/>
				</linearGradient>
				<path class="st1" d="M103.8,97c-30.5,5.4-61,12.5-91.4,21.5c-4.2,1.2-8.3,2.5-12.4,3.8v10.7c5.1-1.4,10.3-2.9,15.4-4.4
					C45.8,119.7,75.3,109.1,103.8,97z"/>
			</g>
			<g>
				
					<linearGradient id="SVGID_2_" gradientUnits="userSpaceOnUse" x1="543.1248" y1="39.3356" x2="545.4484" y2="38.5802" gradientTransform="matrix(77.3572 0 0 77.3572 -42078.168 -2908.7622)">
					<stop  offset="0" style="stop-color:#FFE400"/>
					<stop  offset="0.355" style="stop-color:#FFFFFF"/>
					<stop  offset="0.645" style="stop-color:#FFFFFF"/>
					<stop  offset="1" style="stop-color:#FFE400"/>
				</linearGradient>
				<path class="st2" d="M112.5,76.9c-29.2,6.2-58.5,14-87.7,23.5c-8.3,2.7-16.6,5.5-24.8,8.5v9c9.3-2.7,18.5-5.5,27.7-8.5
					C56.9,99.9,85.2,89.1,112.5,76.9z"/>
			</g>
			<g>
				
					<linearGradient id="SVGID_3_" gradientUnits="userSpaceOnUse" x1="543.3207" y1="39.1265" x2="545.556" y2="38.3297" gradientTransform="matrix(77.3572 0 0 77.3572 -42078.168 -2908.7622)">
					<stop  offset="0" style="stop-color:#FFE400"/>
					<stop  offset="0.37" style="stop-color:#FFFFFF"/>
					<stop  offset="0.63" style="stop-color:#FFFFFF"/>
					<stop  offset="1" style="stop-color:#FFE400"/>
				</linearGradient>
				<path class="st3" d="M120.8,57.6C92.6,64.6,64.5,73,36.5,83C24.2,87.4,12,92.1,0,97v7.4c13.2-4,26.3-8.3,39.4-13
					C67.5,81.3,94.6,70.1,120.8,57.6z"/>
			</g>
			<g>
				
					<linearGradient id="SVGID_4_" gradientUnits="userSpaceOnUse" x1="543.5057" y1="38.9287" x2="545.6574" y2="38.0898" gradientTransform="matrix(77.3572 0 0 77.3572 -42078.168 -2908.7622)">
					<stop  offset="0" style="stop-color:#FFE400"/>
					<stop  offset="0.385" style="stop-color:#FFFFFF"/>
					<stop  offset="0.615" style="stop-color:#FFFFFF"/>
					<stop  offset="1" style="stop-color:#FFE400"/>
				</linearGradient>
				<path class="st4" d="M128.7,39.2c-27.1,7.7-54.1,16.8-81.1,27.3C31.4,72.8,15.5,79.5,0,86.6V92c16.9-5.5,33.8-11.4,50.6-18
					C77.5,63.5,103.6,51.9,128.7,39.2z"/>
			</g>
			<g>
				
					<linearGradient id="SVGID_5_" gradientUnits="userSpaceOnUse" x1="543.6835" y1="38.7398" x2="545.7562" y2="37.8579" gradientTransform="matrix(77.3572 0 0 77.3572 -42078.168 -2908.7622)">
					<stop  offset="0" style="stop-color:#FFE400"/>
					<stop  offset="0.4" style="stop-color:#FFFFFF"/>
					<stop  offset="0.6" style="stop-color:#FFFFFF"/>
					<stop  offset="1" style="stop-color:#FFE400"/>
				</linearGradient>
				<path class="st5" d="M136.3,21.4c-26.1,8.4-52.1,18.1-78.1,29.2C38.3,59,18.9,68.1,0,77.7v3.2c20.5-7,40.9-14.9,61.2-23.5
					C87.1,46.4,112.2,34.3,136.3,21.4z"/>
			</g>
			<g>
				
					<linearGradient id="SVGID_6_" gradientUnits="userSpaceOnUse" x1="543.8524" y1="38.5598" x2="545.8508" y2="37.6335" gradientTransform="matrix(77.3572 0 0 77.3572 -42078.168 -2908.7622)">
					<stop  offset="0" style="stop-color:#FFE528"/>
					<stop  offset="0.415" style="stop-color:#FFFFFF"/>
					<stop  offset="0.585" style="stop-color:#FFFFFF"/>
					<stop  offset="1" style="stop-color:#FFE400"/>
				</linearGradient>
				<path class="st6" d="M137.1,7.9V6.6c-22.9,8.5-45.7,18.1-68.5,28.6C45,46.1,22.1,57.9,0,70.4v0.8c23.9-8.8,47.7-18.7,71.5-29.7
					C94,30.9,115.9,19.8,137.1,7.9z"/>
			</g>
			<g>
				
					<linearGradient id="SVGID_7_" gradientUnits="userSpaceOnUse" x1="544.0154" y1="38.3867" x2="545.9448" y2="37.4138" gradientTransform="matrix(77.3572 0 0 77.3572 -42078.168 -2908.7622)">
					<stop  offset="0" style="stop-color:#FFE73F"/>
					<stop  offset="0.43" style="stop-color:#FFFFFF"/>
					<stop  offset="0.57" style="stop-color:#FFFFFF"/>
					<stop  offset="1" style="stop-color:#FFE400"/>
				</linearGradient>
				<path class="st7" d="M8.7,59C33,49.1,57.2,38,81.3,25.9C97.7,17.6,113.8,9,129.4,0h-8.2C107,6.4,92.7,13.2,78.5,20.3
					C54.4,32.5,31.2,45.4,8.7,59z"/>
			</g>
			<g>
				
					<linearGradient id="SVGID_8_" gradientUnits="userSpaceOnUse" x1="544.1736" y1="38.2192" x2="546.0368" y2="37.1983" gradientTransform="matrix(77.3572 0 0 77.3572 -42078.168 -2908.7622)">
					<stop  offset="0" style="stop-color:#FFE851"/>
					<stop  offset="0.445" style="stop-color:#FFFFFF"/>
					<stop  offset="0.555" style="stop-color:#FFFFFF"/>
					<stop  offset="1" style="stop-color:#FFE400"/>
				</linearGradient>
				<path class="st8" d="M20.9,46c23.4-10.7,46.8-22.4,70-35.2c6.5-3.6,12.9-7.2,19.3-10.8H99c-3.6,1.9-7.2,3.9-10.9,5.9
					C64.9,18.6,42.5,32,20.9,46z"/>
			</g>
			<g>
				
					<linearGradient id="SVGID_9_" gradientUnits="userSpaceOnUse" x1="544.3298" y1="38.054" x2="546.1249" y2="36.9861" gradientTransform="matrix(77.3572 0 0 77.3572 -42078.168 -2908.7622)">
					<stop  offset="0" style="stop-color:#FFEA61"/>
					<stop  offset="0.46" style="stop-color:#FFFFFF"/>
					<stop  offset="0.54" style="stop-color:#FFFFFF"/>
					<stop  offset="1" style="stop-color:#FFE400"/>
				</linearGradient>
				<path class="st9" d="M93.2,0h-9.6C66.3,10.7,49.3,21.7,32.9,33C53.1,22.7,73.2,11.7,93.2,0z"/>
			</g>
			<g>
				
					<linearGradient id="SVGID_10_" gradientUnits="userSpaceOnUse" x1="544.4878" y1="37.8878" x2="546.2166" y2="36.7715" gradientTransform="matrix(77.3572 0 0 77.3572 -42078.168 -2908.7622)">
					<stop  offset="0" style="stop-color:#FFEB6E"/>
					<stop  offset="0.475" style="stop-color:#FFFFFF"/>
					<stop  offset="0.525" style="stop-color:#FFFFFF"/>
					<stop  offset="1" style="stop-color:#FFE400"/>
				</linearGradient>
				<path class="st10" d="M79.2,0h-6c-9.6,6.6-19,13.3-28.2,20.1C56.4,13.6,67.8,6.9,79.2,0z"/>
			</g>
		</g>
		<path class="st11" d="M49.7,132.1l7.4-33.3l9.1,0l-4,17.7l7.4-8.9h10.2l-9.2,11.1l3.8,13.4h-9.1l-3.8-12.7l-3,12.7H49.7z
			 M16.7,115.3l6.4,16.8h8.7l7.5-33.3l-9,0l-3.8,17l-6.3-17h-9.1l-7.4,33.4h9.2C14,126.7,15.4,121.1,16.7,115.3z M45.3,132.1
			l5.5-24.5h-9l-5.5,24.5H45.3z M42.3,102.2c0,0.8,0.2,3.5,5.1,3.5c4.1,0,5.6-2.6,5.6-4.6c0-1.3-1.1-3.6-5.1-3.6
			C44.2,97.5,42.3,100,42.3,102.2z M128.4,107.2c-3.8-1.1-8.6,0.8-10.9,4c0.2-1,0.5-2.2,0.7-3.5h-9.1l-5.3,24.3h9l3-13.8
			c0.6-2.5,2.6-3.6,4.4-3.2c0.8,0.2,1.9,0.8,1.5,2.9l-3.1,14h8.9l4.1-18.7C132.6,109.2,129.3,107.5,128.4,107.2z M98,129.8
			c3.9-3.2,5.9-8.6,5.8-13.7c-0.1-4.9-4.2-9.6-11.5-9.6c-13.8,0-15.8,10.7-16.2,12.7c-1,5,0.1,11.4,6.6,13.1
			C87,133.5,93.7,133.4,98,129.8z M87.9,115.7c0.6-1.8,2.4-2.2,3.2-2.2c2,0,2.5,1.2,2.3,2.3c-0.5,3.1-1.5,6.9-1.9,8.2c0,0,0,0,0,0
			c-0.4,1.4-1.7,2.1-3.2,2.1c-1.5,0-2.4-1-2.3-2.2C86.2,121.9,87.5,116.7,87.9,115.7z"/>
	</g>
	<path d="M49.7,132.1l7.4-33.3l9.1,0l-4,17.7l7.4-8.9h10.2l-9.2,11.1l3.8,13.4h-9.1l-3.8-12.7l-3,12.7H49.7z M16.7,115.3l6.4,16.8
		h8.7l7.5-33.3l-9,0l-3.8,17l-6.3-17h-9.1l-7.4,33.4h9.2C14,126.7,15.4,121.1,16.7,115.3z M45.3,132.1l5.5-24.5h-9l-5.5,24.5H45.3z
		 M42.3,102.2c0,0.8,0.2,3.5,5.1,3.5c4.1,0,5.6-2.6,5.6-4.6c0-1.3-1.1-3.6-5.1-3.6C44.2,97.5,42.3,100,42.3,102.2z M128.4,107.2
		c-3.8-1.1-8.6,0.8-10.9,4c0.2-1,0.5-2.2,0.7-3.5h-9.1l-5.3,24.3h9l3-13.8c0.6-2.5,2.6-3.6,4.4-3.2c0.8,0.2,1.9,0.8,1.5,2.9l-3.1,14
		h8.9l4.1-18.7C132.6,109.2,129.3,107.5,128.4,107.2z M98,129.8c3.9-3.2,5.9-8.6,5.8-13.7c-0.1-4.9-4.2-9.6-11.5-9.6
		c-13.8,0-15.8,10.7-16.2,12.7c-1,5,0.1,11.4,6.6,13.1C87,133.5,93.7,133.4,98,129.8z M87.9,115.7c0.6-1.8,2.4-2.2,3.2-2.2
		c2,0,2.5,1.2,2.3,2.3c-0.5,3.1-1.5,6.9-1.9,8.2c0,0,0,0,0,0c-0.4,1.4-1.7,2.1-3.2,2.1c-1.5,0-2.4-1-2.3-2.2
		C86.2,121.9,87.5,116.7,87.9,115.7z"/>
</g>
</svg>
